<?xml version="1.0" encoding="utf-8"?>
<!-- Generator: Adobe Illustrator 15.0.0, SVG Export Plug-In . SVG Version: 6.00 Build 0)  -->
<!DOCTYPE svg PUBLIC "-//W3C//DTD SVG 1.1//EN" "http://www.w3.org/Graphics/SVG/1.1/DTD/svg11.dtd">
<svg version="1.1" id="Layer_1" xmlns="http://www.w3.org/2000/svg" xmlns:xlink="http://www.w3.org/1999/xlink" x="0px" y="0px"
	 viewBox="319.548 1712.057 328 105" enable-background="new 319.548 1712.057 328 105"
	 xml:space="preserve">
<title>logo-black</title>
<g>
	<g>
		<path d="M614.286,815.507c0,41.72-25.984,65.874-71.729,65.874h-35.5v51.234h-40.621V753.293h76.121
			C587.937,753.293,614.286,775.982,614.286,815.507z M575.86,816.971c0-20.128-12.809-30.01-35.5-30.01h-33.668v60.751h33.668
			C563.052,847.712,575.86,837.465,575.86,816.971z"/>
		<path d="M688.211,753.293v179.322h-40.622V753.293H688.211z"/>
		<path d="M853.994,897.849H770.92l-14.273,34.767h-41.719l77.951-179.322h41.719l76.486,179.322H867.9L853.994,897.849z
			 M840.82,865.278l-28.18-69.534l-28.545,69.534H840.82z"/>
		<path d="M1066.619,753.293l-0.365,33.668h-88.197v43.916h80.879v33.669h-80.879v68.069h-40.623V753.293H1066.619z"/>
	</g>
	<g>

			<linearGradient id="SVGID_1_" gradientUnits="userSpaceOnUse" x1="-74.8481" y1="1171.8184" x2="-20.1799" y2="1099.271" gradientTransform="matrix(3.6597 0 0 -3.6597 292.6697 5006.5137)">
			<stop  offset="0" style="stop-color:#BC2A1B"/>
			<stop  offset="0.25" style="stop-color:#E53523"/>
			<stop  offset="0.5706" style="stop-color:#E7523E"/>
			<stop  offset="0.7346" style="stop-color:#F18024"/>
			<stop  offset="0.8335" style="stop-color:#F18024"/>
			<stop  offset="1" style="stop-color:#E7523E"/>
		</linearGradient>
		<path fill="url(#SVGID_1_)" d="M152.071,942.862l27.082,50.504c21.592-13.175,42.452-27.082,62.945-41.354l-84.903-15.736
			C152.071,935.178,149.876,938.105,152.071,942.862z"/>

			<linearGradient id="SVGID_2_" gradientUnits="userSpaceOnUse" x1="-94.1372" y1="1154.3408" x2="-41.723" y2="1084.7848" gradientTransform="matrix(3.6597 0 0 -3.6597 292.6697 5006.5137)">
			<stop  offset="0" style="stop-color:#BC2A1B"/>
			<stop  offset="0.25" style="stop-color:#E53523"/>
			<stop  offset="0.5706" style="stop-color:#E7523E"/>
			<stop  offset="0.7346" style="stop-color:#F18024"/>
			<stop  offset="0.8335" style="stop-color:#F18024"/>
			<stop  offset="1" style="stop-color:#E7523E"/>
		</linearGradient>
		<path fill="url(#SVGID_2_)" d="M122.063,929.688c-1.098-0.365-5.124,2.196-9.515,5.124l-58.92,43.916
			c-5.855,44.647,31.106,69.899,80.877,40.622c9.516-5.124,19.031-10.613,28.18-16.103l-34.4-64.776
			C126.089,933.714,123.161,930.054,122.063,929.688z"/>

			<linearGradient id="SVGID_3_" gradientUnits="userSpaceOnUse" x1="-36.6924" y1="1191.8945" x2="14.4844" y2="1123.9806" gradientTransform="matrix(3.6597 0 0 -3.6597 292.6697 5006.5137)">
			<stop  offset="0" style="stop-color:#BC2A1B"/>
			<stop  offset="0.25" style="stop-color:#E53523"/>
			<stop  offset="0.5706" style="stop-color:#E7523E"/>
			<stop  offset="0.7346" style="stop-color:#F18024"/>
			<stop  offset="0.8335" style="stop-color:#F18024"/>
			<stop  offset="1" style="stop-color:#E7523E"/>
		</linearGradient>
		<path fill="url(#SVGID_3_)" d="M290.407,803.063l-34.768,25.618c-4.025,2.928-4.758,8.783-0.731,12.442l58.188,58.188
			c36.596-27.081,41.354-64.044,17.566-94.785l-23.422-5.123C302.118,798.307,294.798,799.771,290.407,803.063z"/>

			<linearGradient id="SVGID_4_" gradientUnits="userSpaceOnUse" x1="-62.0088" y1="1175.5566" x2="-9.9806" y2="1106.5129" gradientTransform="matrix(3.6597 0 0 -3.6597 292.6697 5006.5137)">
			<stop  offset="0" style="stop-color:#BC2A1B"/>
			<stop  offset="0.25" style="stop-color:#E53523"/>
			<stop  offset="0.5706" style="stop-color:#E7523E"/>
			<stop  offset="0.7346" style="stop-color:#F18024"/>
			<stop  offset="0.8335" style="stop-color:#F18024"/>
			<stop  offset="1" style="stop-color:#E7523E"/>
		</linearGradient>
		<path fill="url(#SVGID_4_)" d="M239.538,852.469c-3.66-3.659-10.248-4.025-14.273-1.098l-76.486,57.091
			c-4.025,2.928-3.294,6.587,1.83,7.319l113.083,20.86c11.711-8.418,23.056-17.201,34.4-25.984L239.538,852.469z"/>

			<linearGradient id="SVGID_5_" gradientUnits="userSpaceOnUse" x1="-44.1094" y1="1189.4766" x2="8.9607" y2="1119.0503" gradientTransform="matrix(3.6597 0 0 -3.6597 292.6697 5006.5137)">
			<stop  offset="0" style="stop-color:#BC2A1B"/>
			<stop  offset="0.25" style="stop-color:#E53523"/>
			<stop  offset="0.5706" style="stop-color:#E7523E"/>
			<stop  offset="0.7346" style="stop-color:#F18024"/>
			<stop  offset="0.8335" style="stop-color:#F18024"/>
			<stop  offset="1" style="stop-color:#E7523E"/>
		</linearGradient>
		<path fill="url(#SVGID_5_)" d="M264.423,789.889l-67.703-14.638c-5.123-1.099-6.222,1.098-2.563,4.757l34.035,34.035
			c3.66,3.659,10.247,4.025,14.273,1.098l23.422-17.566C270.278,794.646,269.547,790.987,264.423,789.889z"/>

			<linearGradient id="SVGID_6_" gradientUnits="userSpaceOnUse" x1="-61.3491" y1="1176.4531" x2="-8.8249" y2="1106.7511" gradientTransform="matrix(3.6597 0 0 -3.6597 292.6697 5006.5137)">
			<stop  offset="0" style="stop-color:#BC2A1B"/>
			<stop  offset="0.25" style="stop-color:#E53523"/>
			<stop  offset="0.5706" style="stop-color:#E7523E"/>
			<stop  offset="0.7346" style="stop-color:#F18024"/>
			<stop  offset="0.8335" style="stop-color:#F18024"/>
			<stop  offset="1" style="stop-color:#E7523E"/>
		</linearGradient>
		<path fill="url(#SVGID_6_)" d="M130.846,743.777l-70.997-71.363c-8.783,14.639-9.148,36.597,2.195,61.482l66.24,14.272
			C133.407,749.633,134.872,747.438,130.846,743.777z"/>

			<linearGradient id="SVGID_7_" gradientUnits="userSpaceOnUse" x1="-83.1519" y1="1161.2207" x2="-31.509" y2="1092.6882" gradientTransform="matrix(3.6597 0 0 -3.6597 292.6697 5006.5137)">
			<stop  offset="0" style="stop-color:#BC2A1B"/>
			<stop  offset="0.25" style="stop-color:#E53523"/>
			<stop  offset="0.5706" style="stop-color:#E7523E"/>
			<stop  offset="0.7346" style="stop-color:#F18024"/>
			<stop  offset="0.8335" style="stop-color:#F18024"/>
			<stop  offset="1" style="stop-color:#E7523E"/>
		</linearGradient>
		<path fill="url(#SVGID_7_)" d="M108.155,900.41l-31.106-58.188c0,19.763-1.464,39.891-4.025,59.287l30.375,5.489
			C108.522,908.096,110.718,905.168,108.155,900.41z"/>

			<linearGradient id="SVGID_8_" gradientUnits="userSpaceOnUse" x1="-42.7632" y1="1189.917" x2="10.7337" y2="1118.9243" gradientTransform="matrix(3.6597 0 0 -3.6597 292.6697 5006.5137)">
			<stop  offset="0" style="stop-color:#BC2A1B"/>
			<stop  offset="0.25" style="stop-color:#E53523"/>
			<stop  offset="0.5706" style="stop-color:#E7523E"/>
			<stop  offset="0.7346" style="stop-color:#F18024"/>
			<stop  offset="0.8335" style="stop-color:#F18024"/>
			<stop  offset="1" style="stop-color:#E7523E"/>
		</linearGradient>
		<path fill="url(#SVGID_8_)" d="M180.983,759.88l95.883,20.86c5.123,1.098,12.809-0.366,16.834-3.66l3.294-2.562
			c-52.333-39.891-104.3-76.121-162.122-107.96c-24.887-14.639-46.844-15.37-61.482-7.319l91.857,91.857
			C168.906,754.757,175.859,758.782,180.983,759.88z"/>

			<linearGradient id="SVGID_9_" gradientUnits="userSpaceOnUse" x1="-90.5898" y1="1153.9043" x2="-40.9766" y2="1088.0654" gradientTransform="matrix(3.6597 0 0 -3.6597 292.6697 5006.5137)">
			<stop  offset="0" style="stop-color:#BC2A1B"/>
			<stop  offset="0.25" style="stop-color:#E53523"/>
			<stop  offset="0.5706" style="stop-color:#E7523E"/>
			<stop  offset="0.7346" style="stop-color:#F18024"/>
			<stop  offset="0.8335" style="stop-color:#F18024"/>
			<stop  offset="1" style="stop-color:#E7523E"/>
		</linearGradient>
		<path fill="url(#SVGID_9_)" d="M85.832,923.101l-15.736-2.928c-2.196,9.515-4.392,19.03-6.954,28.18l24.154-17.933
			C91.688,927.126,90.956,923.832,85.832,923.101z"/>

			<linearGradient id="SVGID_10_" gradientUnits="userSpaceOnUse" x1="-64.7847" y1="1174.5615" x2="-12.9299" y2="1105.7478" gradientTransform="matrix(3.6597 0 0 -3.6597 292.6697 5006.5137)">
			<stop  offset="0" style="stop-color:#BC2A1B"/>
			<stop  offset="0.25" style="stop-color:#E53523"/>
			<stop  offset="0.5706" style="stop-color:#E7523E"/>
			<stop  offset="0.7346" style="stop-color:#F18024"/>
			<stop  offset="0.8335" style="stop-color:#F18024"/>
			<stop  offset="1" style="stop-color:#E7523E"/>
		</linearGradient>
		<path fill="url(#SVGID_10_)" d="M124.624,890.896c2.563,4.758,7.686,5.855,12.077,2.562l75.022-55.992
			c4.026-2.928,4.758-8.783,0.732-12.443l-52.699-52.333c-3.659-3.659-10.979-7.685-16.102-8.783l-77.951-16.834
			c4.025,16.103,6.953,32.937,8.783,49.771L124.624,890.896z"/>
	</g>
</g>
<g id="Layer_x0020_1">
	<path fill="#27214D" d="M1423.317,604.289c-2.81,3.955-6.371,7.058-10.617,9.39c-4.248,2.331-8.952,3.477-14.074,3.561
		c-4.247-0.041-8.223-0.833-11.949-2.456c-3.686-1.605-6.933-3.79-9.723-6.643c-2.811-2.811-5.018-6.1-6.579-9.825
		c-1.604-3.687-2.393-7.703-2.415-11.951c0.042-4.247,0.834-8.265,2.415-11.971c1.562-3.727,3.748-6.974,6.579-9.784
		c2.79-2.853,6.037-5.039,9.723-6.662c3.727-1.604,7.702-2.395,11.949-2.415c3.395,0,6.642,0.562,9.682,1.624
		c3.02,1.062,5.85,2.561,8.368,4.456c2.562,1.894,4.789,4.122,6.642,6.662l13.741-10.16c-0.688-0.999-1.457-1.957-2.249-2.852
		c-0.791-0.937-1.624-1.832-2.519-2.727c-4.519-4.476-9.66-7.89-15.406-10.223c-5.745-2.332-11.845-3.518-18.259-3.518
		c-6.432,0-12.532,1.187-18.341,3.518c-5.809,2.333-10.95,5.747-15.489,10.223c-4.517,4.622-7.932,9.826-10.325,15.551
		c-2.395,5.767-3.581,11.888-3.623,18.279c0.042,6.412,1.229,12.513,3.623,18.279c2.394,5.745,5.809,10.951,10.325,15.551
		c4.539,4.477,9.681,7.891,15.489,10.223s11.909,3.518,18.341,3.518c6.414,0,12.514-1.186,18.259-3.518
		c5.746-2.332,10.888-5.746,15.406-10.223c0.895-0.895,1.748-1.832,2.561-2.81c0.833-0.958,1.623-1.957,2.414-2.956l-13.927-10.16
		L1423.317,604.289z M1528.036,552.534c-4.518-4.476-9.66-7.89-15.405-10.223c-5.746-2.332-11.846-3.518-18.259-3.518
		s-12.512,1.187-18.279,3.518c-5.745,2.333-10.951,5.747-15.552,10.223c-4.517,4.622-7.931,9.826-10.325,15.551
		c-2.395,5.767-3.581,11.888-3.623,18.279c0.042,6.412,1.229,12.513,3.623,18.279c2.395,5.745,5.809,10.951,10.325,15.551
		c4.622,4.518,9.827,7.932,15.552,10.326c5.768,2.395,11.889,3.581,18.279,3.623c6.413-0.042,12.513-1.229,18.259-3.623
		c5.745-2.395,10.888-5.809,15.405-10.326c4.621-4.622,8.099-9.826,10.514-15.551c2.394-5.767,3.622-11.889,3.622-18.279
		c0-6.411-1.229-12.512-3.622-18.279C1536.135,562.34,1532.637,557.135,1528.036,552.534z M1494.393,617.029
		c-4.247-0.041-8.224-0.831-11.949-2.413c-3.685-1.563-6.934-3.749-9.723-6.579c-2.811-2.79-5.018-6.037-6.578-9.722
		c-1.604-3.728-2.396-7.703-2.415-11.951c0.041-4.247,0.832-8.223,2.415-11.908c1.561-3.643,3.747-6.912,6.578-9.66
		c2.789-2.79,6.038-4.934,9.723-6.495c3.726-1.562,7.702-2.353,11.949-2.395c4.248,0.042,8.224,0.833,11.951,2.395
		c3.684,1.562,6.932,3.726,9.722,6.495c2.811,2.748,5.018,5.996,6.578,9.66c1.604,3.685,2.394,7.661,2.416,11.908
		c-0.042,4.248-0.834,8.224-2.416,11.951c-1.561,3.685-3.746,6.932-6.578,9.722c-2.79,2.811-6.038,5.017-9.722,6.579
		C1502.616,616.219,1498.641,617.01,1494.393,617.029z M1634.752,551.722c-4.204-4.185-9.034-7.37-14.364-9.514
		c-5.351-2.124-10.992-3.227-16.885-3.227c-3.247,0.042-6.432,0.5-9.597,1.395c-3.122,0.937-6.142,2.187-9.034,3.748
		c-2.915,1.603-5.685,3.393-8.267,5.413v-8.765h-17.112v91.186h17.112v-48.965c0.043-3.747,0.729-7.266,2.124-10.556
		c1.395-3.289,3.311-6.162,5.767-8.702c2.498-2.499,5.351-4.456,8.557-5.871c3.248-1.437,6.704-2.124,10.409-2.166
		c3.748,0.042,7.266,0.729,10.493,2.166c3.247,1.436,6.1,3.394,8.557,5.871c2.456,2.519,4.351,5.413,5.746,8.702
		c1.353,3.29,2.061,6.809,2.082,10.556v48.965h17.112v-48.965c-0.041-5.997-1.124-11.68-3.311-16.988
		c-2.186-5.309-5.309-10.056-9.431-14.261L1634.752,551.722z M1742.261,551.722c-4.205-4.185-9.035-7.37-14.365-9.514
		c-5.35-2.124-10.991-3.227-16.884-3.227c-3.247,0.042-6.433,0.5-9.598,1.395c-3.122,0.937-6.142,2.187-9.034,3.748
		c-2.916,1.603-5.684,3.393-8.266,5.413v-8.765H1667v91.186h17.114v-48.965c0.041-3.747,0.729-7.266,2.123-10.556
		c1.396-3.289,3.311-6.162,5.768-8.702c2.498-2.499,5.35-4.456,8.556-5.871c3.247-1.437,6.704-2.124,10.409-2.166
		c3.748,0.042,7.267,0.729,10.494,2.166c3.247,1.436,6.099,3.394,8.555,5.871c2.458,2.519,4.353,5.413,5.746,8.702
		c1.354,3.29,2.062,6.809,2.083,10.556v48.965h17.113v-48.965c-0.043-5.997-1.125-11.68-3.311-16.988
		c-2.187-5.309-5.31-10.056-9.432-14.261L1742.261,551.722z M1856.93,576.018c-0.832-4.185-2.228-8.161-4.185-11.887
		c-1.956-3.727-4.351-7.142-7.16-10.222c-4.123-4.414-8.828-7.807-14.095-10.16c-5.309-2.352-10.951-3.56-16.946-3.58
		c-5.934,0.041-11.555,1.228-16.863,3.58c-5.31,2.353-9.951,5.747-14.012,10.16c-2.79,3.081-5.184,6.496-7.099,10.222
		c-1.915,3.726-3.352,7.703-4.247,11.887c-0.791,3.581-1.188,7.162-1.188,10.743c0,0.686,0,1.395,0.043,2.081
		c0,0.686,0.063,1.395,0.166,2.082c0.438,5.518,1.686,10.68,3.789,15.531c2.124,4.851,4.975,9.223,8.557,13.136
		c4.018,4.519,8.66,7.933,13.927,10.327c5.268,2.394,10.909,3.579,16.927,3.621c4.31-0.207,8.535-0.854,12.637-1.957
		c4.121-1.123,7.932-2.726,11.45-4.809c2.291-1.395,4.455-2.914,6.434-4.621c2.019-1.687,3.914-3.561,5.704-5.538l-14.345-8.556
		c-1.956,1.914-4.122,3.579-6.537,4.934c-2.416,1.395-4.935,2.456-7.641,3.248c-2.686,0.77-5.371,1.227-8.119,1.352
		c-4.413-0.104-8.535-1.332-12.283-3.643c-3.747-2.332-6.87-5.433-9.348-9.431c-2.519-3.976-4.142-8.535-4.85-13.595v-0.396h70.282
		c0.126-0.895,0.167-2.519,0.105-4.871c-0.063-2.394-0.438-5.601-1.104-9.66V576.018z M1789.04,576.226l0.209-0.396
		c1.437-3.956,3.414-7.391,5.975-10.326c2.561-2.956,5.517-5.246,8.827-6.912c3.311-1.624,6.808-2.457,10.493-2.499
		c3.747,0.042,7.307,0.854,10.617,2.499c3.352,1.666,6.268,3.956,8.827,6.912c2.519,2.915,4.476,6.371,5.851,10.326l0.207,0.396
		h-50.963H1789.04z M1942.934,604.289c-2.812,3.955-6.372,7.058-10.618,9.39c-4.247,2.331-8.953,3.477-14.073,3.561
		c-4.247-0.041-8.225-0.833-11.95-2.456c-3.686-1.605-6.933-3.79-9.723-6.643c-2.811-2.811-5.018-6.1-6.578-9.825
		c-1.604-3.687-2.395-7.703-2.416-11.951c0.042-4.247,0.833-8.265,2.416-11.971c1.561-3.727,3.746-6.974,6.578-9.784
		c2.79-2.853,6.037-5.039,9.723-6.662c3.726-1.604,7.703-2.395,11.95-2.415c3.393,0,6.641,0.562,9.68,1.624
		c3.02,1.062,5.851,2.561,8.37,4.456c2.56,1.894,4.788,4.122,6.642,6.662l13.739-10.16c-0.688-0.999-1.457-1.957-2.248-2.852
		c-0.791-0.937-1.624-1.832-2.52-2.727c-4.518-4.476-9.659-7.89-15.405-10.223c-5.746-2.332-11.847-3.518-18.258-3.518
		c-6.434,0-12.533,1.187-18.342,3.518c-5.809,2.333-10.95,5.747-15.489,10.223c-4.518,4.622-7.932,9.826-10.326,15.551
		c-2.394,5.767-3.581,11.888-3.623,18.279c0.042,6.412,1.229,12.513,3.623,18.279c2.395,5.745,5.809,10.951,10.326,15.551
		c4.539,4.477,9.681,7.891,15.489,10.223s11.908,3.518,18.342,3.518c6.411,0,12.512-1.186,18.258-3.518s10.888-5.746,15.405-10.223
		c0.896-0.895,1.749-1.832,2.561-2.81c0.833-0.958,1.625-1.957,2.415-2.956l-13.928-10.16L1942.934,604.289z M1971.808,540.771
		v16.322h47.987l-47.778,58.127v16.716h70.076v-16.321h-47.987l47.779-58.126v-16.718H1971.808z M2141.626,576.018
		c-0.832-4.185-2.227-8.161-4.184-11.887c-1.957-3.727-4.352-7.142-7.161-10.222c-4.122-4.414-8.828-7.807-14.096-10.16
		c-5.309-2.352-10.95-3.56-16.946-3.58c-5.933,0.041-11.554,1.228-16.862,3.58c-5.31,2.353-9.951,5.747-14.012,10.16
		c-2.79,3.081-5.185,6.496-7.099,10.222c-1.915,3.726-3.352,7.703-4.248,11.887c-0.79,3.581-1.187,7.162-1.187,10.743
		c0,0.686,0,1.395,0.042,2.081c0,0.686,0.063,1.395,0.167,2.082c0.437,5.518,1.688,10.68,3.789,15.531
		c2.124,4.851,4.977,9.223,8.556,13.136c4.019,4.519,8.661,7.933,13.929,10.327c5.268,2.394,10.909,3.579,16.925,3.621
		c4.31-0.207,8.536-0.854,12.638-1.957c4.122-1.123,7.933-2.726,11.45-4.809c2.289-1.395,4.455-2.914,6.433-4.621
		c2.02-1.687,3.913-3.561,5.704-5.538l-14.344-8.556c-1.957,1.914-4.122,3.579-6.537,4.934c-2.415,1.395-4.934,2.456-7.641,3.248
		c-2.686,0.77-5.371,1.227-8.119,1.352c-4.414-0.104-8.535-1.332-12.283-3.643c-3.747-2.332-6.869-5.433-9.348-9.431
		c-2.519-3.976-4.143-8.535-4.852-13.595v-0.396h70.285c0.125-0.895,0.166-2.519,0.104-4.871c-0.062-2.394-0.437-5.601-1.104-9.66
		V576.018z M2073.736,576.226l0.208-0.396c1.438-3.956,3.415-7.391,5.976-10.326c2.561-2.956,5.518-5.246,8.827-6.912
		c3.311-1.624,6.809-2.457,10.492-2.499c3.748,0.042,7.309,0.854,10.617,2.499c3.353,1.666,6.268,3.956,8.828,6.912
		c2.519,2.915,4.476,6.371,5.85,10.326l0.209,0.396h-50.964H2073.736z M2234.395,551.743c-4.205-4.184-9.035-7.37-14.364-9.514
		c-5.351-2.124-10.992-3.227-16.884-3.227c-3.248,0.042-6.435,0.5-9.598,1.395c-3.124,0.938-6.142,2.187-9.036,3.748
		c-2.914,1.603-5.683,3.393-8.265,5.412v-8.764h-17.112v91.185h17.112v-48.965c0.042-3.748,0.729-7.266,2.124-10.555
		c1.395-3.29,3.309-6.163,5.766-8.702c2.5-2.499,5.352-4.456,8.557-5.872c3.248-1.437,6.705-2.124,10.411-2.165
		c3.745,0.042,7.265,0.729,10.491,2.165c3.248,1.437,6.101,3.394,8.557,5.872c2.457,2.519,4.352,5.412,5.747,8.702
		c1.353,3.289,2.061,6.807,2.081,10.555v48.965h17.113v-48.965c-0.043-5.996-1.125-11.679-3.311-16.988
		c-2.186-5.309-5.309-10.056-9.431-14.261L2234.395,551.743z"/>

		<linearGradient id="SVGID_11_" gradientUnits="userSpaceOnUse" x1="41682.8125" y1="-16715.8652" x2="42513.1875" y2="-15538.2383" gradientTransform="matrix(0.0283 0 0 -0.0283 294.4865 238.5296)">
		<stop  offset="0" style="stop-color:#B34B0E"/>
		<stop  offset="1" style="stop-color:#D78400"/>
	</linearGradient>
	<path fill="url(#SVGID_11_)" d="M1509.194,664.518L1509.194,664.518c3.561,2.395,4.498,7.287,2.104,10.827l-17.696,26.168
		c-2.394,3.561-7.286,4.497-10.826,2.103l0,0c-3.56-2.415-4.496-7.286-2.102-10.826l17.696-26.168
		C1500.785,663.061,1505.656,662.123,1509.194,664.518z"/>

		<linearGradient id="SVGID_12_" gradientUnits="userSpaceOnUse" x1="52248.3828" y1="-14946.4629" x2="52598.2773" y2="-15733.6484" gradientTransform="matrix(0.0283 0 0 -0.0283 294.4865 238.5296)">
		<stop  offset="0" style="stop-color:#426721"/>
		<stop  offset="1" style="stop-color:#5F8E30"/>
	</linearGradient>
	<path fill="url(#SVGID_12_)" d="M1776.778,650.985L1776.778,650.985c4.227-0.749,8.286,2.103,9.035,6.328l5.475,31.104
		c0.75,4.226-2.102,8.286-6.328,9.035l0,0c-4.227,0.749-8.286-2.103-9.035-6.329l-5.475-31.103
		C1769.699,655.794,1772.552,651.735,1776.778,650.985z"/>

		<linearGradient id="SVGID_13_" gradientUnits="userSpaceOnUse" x1="61462.8438" y1="-15562.127" x2="63011.1563" y2="-16231.5537" gradientTransform="matrix(0.0283 0 0 -0.0283 294.4865 238.5296)">
		<stop  offset="0" style="stop-color:#870546"/>
		<stop  offset="1" style="stop-color:#AC015D"/>
	</linearGradient>
	<path fill="url(#SVGID_13_)" d="M2035.556,678.738L2035.556,678.738c1.77-3.915,6.412-5.664,10.325-3.894l28.793,12.99
		c3.913,1.771,5.662,6.413,3.893,10.325l0,0c-1.77,3.915-6.411,5.664-10.326,3.894l-28.792-12.99
		C2035.534,687.294,2033.785,682.651,2035.556,678.738z"/>

		<linearGradient id="SVGID_14_" gradientUnits="userSpaceOnUse" x1="36821.4414" y1="-13439.7012" x2="35203.332" y2="-13749.3428" gradientTransform="matrix(0.0283 0 0 -0.0283 294.4865 238.5296)">
		<stop  offset="0" style="stop-color:#035A85"/>
		<stop  offset="0.4588" style="stop-color:#056B9E"/>
		<stop  offset="1" style="stop-color:#087CB7"/>
	</linearGradient>
	<path fill="url(#SVGID_14_)" d="M1336.774,623.568L1336.774,623.568c0.125,4.287-3.269,7.91-7.558,8.034l-31.562,0.958
		c-4.289,0.125-7.91-3.267-8.035-7.556l0,0c-0.125-4.289,3.268-7.912,7.557-8.037l31.561-0.958
		C1333.026,615.886,1336.649,619.279,1336.774,623.568z"/>

		<linearGradient id="SVGID_15_" gradientUnits="userSpaceOnUse" x1="41866.0742" y1="-8605.2969" x2="43390.8398" y2="-9340.6455" gradientTransform="matrix(0.0283 0 0 -0.0283 294.4865 238.5296)">
		<stop  offset="0" style="stop-color:#870546"/>
		<stop  offset="1" style="stop-color:#AC015D"/>
	</linearGradient>
	<path fill="url(#SVGID_15_)" d="M1521.873,503.652L1521.873,503.652c-2.103,3.747-6.87,5.101-10.616,2.998l-27.564-15.426
		c-3.748-2.103-5.101-6.871-2.998-10.618l0,0c2.103-3.748,6.87-5.101,10.618-2.998l27.563,15.427
		C1522.622,495.137,1523.976,499.904,1521.873,503.652z"/>

		<linearGradient id="SVGID_16_" gradientUnits="userSpaceOnUse" x1="47598.4961" y1="-8199.3125" x2="48248.9258" y2="-8850.0352" gradientTransform="matrix(0.0283 0 0 -0.0283 294.4865 238.5296)">
		<stop  offset="0" style="stop-color:#426721"/>
		<stop  offset="1" style="stop-color:#5F8E30"/>
	</linearGradient>
	<path fill="url(#SVGID_16_)" d="M1669.188,495.99L1669.188,495.99c-2.999,3.082-7.953,3.144-11.034,0.146l-22.609-22.047
		c-3.081-2.998-3.144-7.953-0.146-11.034l0,0c2.998-3.081,7.952-3.144,11.034-0.146l22.608,22.047
		C1672.123,487.955,1672.185,492.909,1669.188,495.99z"/>

		<linearGradient id="SVGID_17_" gradientUnits="userSpaceOnUse" x1="57231.6484" y1="-7794.4326" x2="56053.4727" y2="-8555.9512" gradientTransform="matrix(0.0283 0 0 -0.0283 294.4865 238.5296)">
		<stop  offset="0" style="stop-color:#035A85"/>
		<stop  offset="0.4588" style="stop-color:#056B9E"/>
		<stop  offset="1" style="stop-color:#087CB7"/>
	</linearGradient>
	<path fill="url(#SVGID_17_)" d="M1889.221,487.08L1889.221,487.08c-3.435-2.56-4.163-7.474-1.583-10.93l18.883-25.316
		c2.562-3.435,7.475-4.163,10.93-1.582l0,0c3.435,2.562,4.164,7.474,1.583,10.93l-18.883,25.316
		C1897.589,488.933,1892.677,489.662,1889.221,487.08z"/>

		<linearGradient id="SVGID_18_" gradientUnits="userSpaceOnUse" x1="62627.0703" y1="-8353.9463" x2="63831.3359" y2="-7881.9644" gradientTransform="matrix(0.0283 0 0 -0.0283 294.4865 238.5296)">
		<stop  offset="0" style="stop-color:#B34B0E"/>
		<stop  offset="1" style="stop-color:#D78400"/>
	</linearGradient>
	<path fill="url(#SVGID_18_)" d="M2119.976,465.449L2119.976,465.449c-0.104,4.289-3.686,7.724-7.995,7.62l-31.583-0.75
		c-4.287-0.104-7.723-3.685-7.617-7.994l0,0c0.104-4.289,3.684-7.724,7.993-7.62l31.581,0.75
		C2116.644,457.559,2120.079,461.14,2119.976,465.449z"/>

		<linearGradient id="SVGID_19_" gradientUnits="userSpaceOnUse" x1="70186.9453" y1="-14033.6504" x2="71048.0938" y2="-14239.3721" gradientTransform="matrix(0.0283 0 0 -0.0283 294.4865 238.5296)">
		<stop  offset="0" style="stop-color:#426721"/>
		<stop  offset="1" style="stop-color:#5F8E30"/>
	</linearGradient>
	<path fill="url(#SVGID_19_)" d="M2318.357,644.221L2318.357,644.221c-0.938,4.184-5.143,6.848-9.327,5.892l-30.813-6.935
		c-4.184-0.936-6.849-5.142-5.891-9.326l0,0c0.937-4.184,5.142-6.849,9.327-5.891l30.811,6.932
		C2316.65,635.83,2319.315,640.036,2318.357,644.221z"/>
</g>
<g id="Layer_x0020_1_1_">
	<path fill="#27214D" d="M364.3,1773.156c-0.877,1.238-1.993,2.209-3.319,2.936c-1.326,0.729-2.795,1.085-4.396,1.112
		c-1.327-0.011-2.568-0.258-3.733-0.768c-1.151-0.501-2.168-1.184-3.04-2.074c-0.877-0.88-1.57-1.908-2.056-3.07
		c-0.501-1.153-0.748-2.406-0.753-3.732c0.011-1.329,0.257-2.585,0.753-3.744c0.485-1.165,1.17-2.179,2.056-3.056
		c0.872-0.891,1.889-1.576,3.04-2.083c1.165-0.499,2.406-0.748,3.733-0.754c1.061,0,2.078,0.176,3.026,0.507
		c0.943,0.332,1.828,0.801,2.615,1.393c0.8,0.592,1.496,1.288,2.075,2.083l4.294-3.177c-0.216-0.313-0.458-0.61-0.704-0.891
		c-0.247-0.293-0.507-0.572-0.787-0.853c-1.412-1.4-3.018-2.466-4.813-3.192c-1.798-0.729-3.7-1.102-5.706-1.102
		c-2.012,0-3.917,0.372-5.733,1.102c-1.812,0.727-3.421,1.792-4.837,3.192c-1.412,1.444-2.478,3.07-3.226,4.859
		c-0.748,1.801-1.118,3.717-1.135,5.715c0.017,2.001,0.387,3.908,1.135,5.709c0.748,1.795,1.814,3.423,3.226,4.859
		c1.417,1.397,3.025,2.467,4.837,3.192c1.817,0.732,3.722,1.1,5.733,1.1c2.006,0,3.908-0.367,5.706-1.1
		c1.795-0.726,3.401-1.795,4.813-3.192c0.279-0.279,0.545-0.573,0.8-0.877c0.26-0.302,0.507-0.614,0.753-0.927l-4.35-3.174
		L364.3,1773.156z M397.024,1756.985c-1.414-1.4-3.023-2.466-4.815-3.192c-1.798-0.729-3.703-1.102-5.706-1.102
		c-2.006,0-3.908,0.372-5.712,1.102c-1.795,0.727-3.423,1.792-4.862,3.192c-1.409,1.444-2.478,3.07-3.223,4.859
		c-0.749,1.801-1.118,3.717-1.132,5.715c0.014,2.001,0.383,3.908,1.132,5.709c0.746,1.795,1.814,3.423,3.223,4.859
		c1.447,1.411,3.075,2.478,4.862,3.226c1.804,0.748,3.716,1.118,5.712,1.135c2.003-0.017,3.908-0.387,5.706-1.135
		c1.792-0.748,3.401-1.814,4.815-3.226c1.439-1.444,2.53-3.069,3.281-4.859c0.751-1.801,1.135-3.714,1.135-5.709
		c0-2.006-0.384-3.914-1.135-5.715C399.554,1760.05,398.458,1758.425,397.024,1756.985z M386.508,1777.139
		c-1.327-0.012-2.568-0.261-3.733-0.754c-1.151-0.488-2.165-1.173-3.04-2.056c-0.874-0.871-1.567-1.886-2.056-3.037
		c-0.499-1.167-0.748-2.406-0.753-3.732c0.014-1.329,0.26-2.573,0.753-3.725c0.488-1.138,1.17-2.16,2.056-3.021
		c0.875-0.869,1.889-1.54,3.04-2.028c1.165-0.487,2.406-0.734,3.733-0.745c1.327,0.011,2.571,0.258,3.735,0.745
		c1.151,0.488,2.166,1.165,3.034,2.028c0.883,0.86,1.573,1.875,2.059,3.021c0.501,1.151,0.748,2.396,0.756,3.725
		c-0.014,1.326-0.261,2.565-0.756,3.732c-0.485,1.151-1.17,2.166-2.059,3.037c-0.869,0.88-1.883,1.567-3.034,2.056
		C389.079,1776.884,387.835,1777.133,386.508,1777.139z M430.366,1756.73c-1.313-1.304-2.82-2.302-4.487-2.971
		c-1.672-0.663-3.434-1.009-5.276-1.009c-1.014,0.012-2.012,0.154-2.999,0.437c-0.976,0.293-1.918,0.682-2.823,1.17
		c-0.91,0.502-1.776,1.061-2.582,1.693v-2.74h-5.35v28.492h5.35v-15.301c0.011-1.171,0.225-2.27,0.664-3.298
		c0.436-1.027,1.033-1.924,1.801-2.719c0.781-0.781,1.671-1.392,2.675-1.836c1.014-0.446,2.094-0.663,3.253-0.674
		c1.17,0.011,2.269,0.228,3.278,0.674c1.014,0.449,1.905,1.063,2.675,1.836c0.765,0.787,1.356,1.691,1.792,2.719
		c0.422,1.028,0.644,2.127,0.652,3.298v15.301h5.344v-15.301c-0.011-1.875-0.348-3.648-1.03-5.307
		c-0.686-1.661-1.661-3.144-2.949-4.456L430.366,1756.73z M463.961,1756.73c-1.315-1.304-2.823-2.302-4.489-2.971
		c-1.672-0.663-3.434-1.009-5.276-1.009c-1.014,0.012-2.009,0.154-2.999,0.437c-0.976,0.293-1.918,0.682-2.82,1.17
		c-0.915,0.502-1.779,1.061-2.587,1.693v-2.74h-5.345v28.492h5.345v-15.301c0.016-1.171,0.23-2.27,0.663-3.298
		c0.436-1.027,1.036-1.924,1.803-2.719c0.781-0.781,1.672-1.392,2.675-1.836c1.014-0.446,2.094-0.663,3.25-0.674
		c1.173,0.011,2.272,0.228,3.281,0.674c1.014,0.449,1.905,1.063,2.672,1.836c0.77,0.787,1.359,1.691,1.798,2.719
		c0.422,1.028,0.642,2.127,0.65,3.298v15.301h5.347v-15.301c-0.014-1.875-0.351-3.648-1.036-5.307
		c-0.68-1.661-1.655-3.144-2.943-4.456L463.961,1756.73z M499.794,1764.325c-0.263-1.31-0.696-2.552-1.31-3.714
		c-0.611-1.167-1.359-2.233-2.234-3.195c-1.291-1.381-2.763-2.439-4.407-3.174c-1.658-0.737-3.42-1.112-5.295-1.118
		c-1.853,0.011-3.609,0.381-5.271,1.118c-1.658,0.734-3.108,1.793-4.377,3.174c-0.872,0.962-1.62,2.028-2.22,3.195
		c-0.595,1.162-1.044,2.404-1.327,3.714c-0.247,1.118-0.37,2.236-0.37,3.357c0,0.214,0,0.434,0.011,0.647
		c0,0.213,0.022,0.436,0.055,0.652c0.137,1.724,0.526,3.338,1.184,4.854c0.663,1.516,1.554,2.881,2.672,4.103
		c1.258,1.412,2.708,2.478,4.355,3.226c1.645,0.749,3.407,1.121,5.287,1.135c1.346-0.065,2.667-0.269,3.949-0.61
		c1.288-0.354,2.478-0.855,3.577-1.505c0.715-0.436,1.393-0.91,2.009-1.441c0.633-0.529,1.225-1.116,1.784-1.732l-4.481-2.673
		c-0.614,0.595-1.288,1.119-2.042,1.541c-0.757,0.436-1.543,0.768-2.39,1.014c-0.838,0.241-1.677,0.384-2.538,0.425
		c-1.378-0.035-2.667-0.419-3.837-1.14c-1.17-0.729-2.146-1.697-2.921-2.946c-0.787-1.245-1.294-2.67-1.516-4.248v-0.124h21.964
		c0.038-0.282,0.049-0.786,0.033-1.523c-0.019-0.746-0.14-1.749-0.345-3.018V1764.325z M478.578,1764.389l0.066-0.123
		c0.449-1.233,1.066-2.309,1.869-3.227c0.797-0.924,1.724-1.639,2.757-2.159c1.033-0.51,2.126-0.768,3.278-0.781
		c1.17,0.014,2.283,0.266,3.316,0.781c1.047,0.521,1.959,1.235,2.76,2.159c0.787,0.91,1.398,1.993,1.825,3.227l0.069,0.123h-15.927
		H478.578z M526.667,1773.156c-0.879,1.238-1.992,2.209-3.319,2.936c-1.327,0.729-2.798,1.085-4.396,1.112
		c-1.327-0.011-2.571-0.258-3.733-0.768c-1.154-0.501-2.168-1.184-3.04-2.074c-0.88-0.88-1.568-1.908-2.056-3.07
		c-0.501-1.153-0.748-2.406-0.753-3.732c0.011-1.329,0.26-2.585,0.753-3.744c0.488-1.165,1.17-2.179,2.056-3.056
		c0.872-0.891,1.886-1.576,3.04-2.083c1.162-0.499,2.406-0.748,3.733-0.754c1.061,0,2.075,0.176,3.023,0.507
		c0.945,0.332,1.828,0.801,2.615,1.393c0.8,0.592,1.499,1.288,2.077,2.083l4.295-3.177c-0.217-0.313-0.458-0.61-0.705-0.891
		c-0.249-0.293-0.507-0.572-0.789-0.853c-1.409-1.4-3.018-2.466-4.81-3.192c-1.798-0.729-3.703-1.102-5.706-1.102
		c-2.012,0-3.919,0.372-5.731,1.102c-1.817,0.727-3.423,1.792-4.84,3.192c-1.411,1.444-2.48,3.07-3.226,4.859
		c-0.751,1.801-1.121,3.717-1.135,5.715c0.014,2.001,0.384,3.908,1.135,5.709c0.745,1.795,1.814,3.423,3.226,4.859
		c1.417,1.397,3.023,2.467,4.84,3.192c1.812,0.732,3.719,1.1,5.731,1.1c2.003,0,3.908-0.367,5.706-1.1
		c1.792-0.726,3.401-1.795,4.81-3.192c0.282-0.279,0.548-0.573,0.803-0.877c0.258-0.302,0.507-0.614,0.751-0.927l-4.352-3.174
		L526.667,1773.156z M535.689,1753.311v5.101h14.995l-14.929,18.163v5.224h21.896v-5.101h-14.992l14.929-18.163v-5.224H535.689z
		 M588.752,1764.325c-0.258-1.31-0.696-2.552-1.307-3.714c-0.611-1.167-1.362-2.233-2.237-3.195
		c-1.288-1.381-2.76-2.439-4.404-3.174c-1.661-0.737-3.423-1.112-5.298-1.118c-1.853,0.011-3.609,0.381-5.268,1.118
		c-1.661,0.734-3.111,1.793-4.377,3.174c-0.874,0.962-1.623,2.028-2.22,3.195c-0.598,1.162-1.047,2.404-1.327,3.714
		c-0.25,1.118-0.373,2.236-0.373,3.357c0,0.214,0,0.434,0.016,0.647c0,0.213,0.017,0.436,0.049,0.652
		c0.137,1.724,0.529,3.338,1.184,4.854c0.663,1.516,1.554,2.881,2.675,4.103c1.255,1.412,2.705,2.478,4.353,3.226
		c1.645,0.749,3.409,1.121,5.287,1.135c1.349-0.065,2.667-0.269,3.95-0.61c1.288-0.354,2.478-0.855,3.579-1.505
		c0.713-0.436,1.393-0.91,2.006-1.441c0.633-0.529,1.225-1.116,1.784-1.732l-4.481-2.673c-0.611,0.595-1.288,1.119-2.042,1.541
		c-0.756,0.436-1.543,0.768-2.387,1.014c-0.838,0.241-1.68,0.384-2.538,0.425c-1.381-0.035-2.669-0.419-3.84-1.14
		c-1.17-0.729-2.146-1.697-2.922-2.946c-0.784-1.245-1.291-2.67-1.516-4.248v-0.124h21.964c0.039-0.282,0.052-0.786,0.033-1.523
		c-0.019-0.746-0.137-1.749-0.345-3.018V1764.325z M567.539,1764.389l0.063-0.123c0.453-1.233,1.069-2.309,1.87-3.227
		c0.8-0.924,1.724-1.639,2.757-2.159c1.036-0.51,2.13-0.768,3.278-0.781c1.173,0.014,2.286,0.266,3.319,0.781
		c1.047,0.521,1.957,1.235,2.757,2.159c0.79,0.91,1.401,1.993,1.831,3.227l0.066,0.123H567.55H567.539z M617.738,1756.739
		c-1.313-1.308-2.82-2.305-4.486-2.974c-1.672-0.663-3.434-1.009-5.275-1.009c-1.015,0.014-2.012,0.156-2.999,0.436
		c-0.979,0.294-1.919,0.683-2.825,1.171c-0.91,0.504-1.773,1.063-2.582,1.693v-2.74h-5.347v28.492h5.347v-15.299
		c0.014-1.17,0.228-2.272,0.666-3.3c0.434-1.025,1.03-1.927,1.798-2.716c0.784-0.781,1.672-1.396,2.675-1.839
		c1.018-0.447,2.097-0.664,3.256-0.675c1.168,0.011,2.267,0.228,3.275,0.675c1.017,0.449,1.908,1.063,2.675,1.839
		c0.768,0.786,1.359,1.69,1.796,2.716c0.424,1.027,0.641,2.13,0.652,3.3v15.299h5.344v-15.299c-0.011-1.872-0.351-3.647-1.033-5.309
		c-0.683-1.658-1.658-3.141-2.946-4.457L617.738,1756.739z"/>

		<linearGradient id="SVGID_20_" gradientUnits="userSpaceOnUse" x1="3044.0137" y1="-55330.1094" x2="3303.4697" y2="-54962.1523" gradientTransform="matrix(0.0283 0 0 -0.0283 294.4865 238.5296)">
		<stop  offset="0" style="stop-color:#B34B0E"/>
		<stop  offset="1" style="stop-color:#D78400"/>
	</linearGradient>
	<path fill="url(#SVGID_20_)" d="M391.135,1791.979L391.135,1791.979c1.113,0.745,1.406,2.274,0.658,3.379l-5.531,8.179
		c-0.746,1.112-2.278,1.406-3.382,0.658l0,0c-1.113-0.757-1.406-2.28-0.658-3.383l5.531-8.178
		C388.506,1791.521,390.027,1791.231,391.135,1791.979z"/>

		<linearGradient id="SVGID_21_" gradientUnits="userSpaceOnUse" x1="6345.502" y1="-54777.293" x2="6454.8223" y2="-55023.2422" gradientTransform="matrix(0.0283 0 0 -0.0283 294.4865 238.5296)">
		<stop  offset="0" style="stop-color:#426721"/>
		<stop  offset="1" style="stop-color:#5F8E30"/>
	</linearGradient>
	<path fill="url(#SVGID_21_)" d="M474.749,1787.751L474.749,1787.751c1.321-0.233,2.587,0.654,2.82,1.976l1.713,9.722
		c0.233,1.318-0.658,2.587-1.979,2.822l0,0c-1.321,0.233-2.59-0.657-2.823-1.979l-1.71-9.719
		C472.535,1789.25,473.428,1787.986,474.749,1787.751z"/>

		<linearGradient id="SVGID_22_" gradientUnits="userSpaceOnUse" x1="9224.791" y1="-54969.6016" x2="9708.5615" y2="-55178.7656" gradientTransform="matrix(0.0283 0 0 -0.0283 294.4865 238.5296)">
		<stop  offset="0" style="stop-color:#870546"/>
		<stop  offset="1" style="stop-color:#AC015D"/>
	</linearGradient>
	<path fill="url(#SVGID_22_)" d="M555.609,1796.422L555.609,1796.422c0.551-1.222,2.003-1.768,3.226-1.22l8.998,4.06
		c1.22,0.557,1.768,2.006,1.214,3.231l0,0c-0.553,1.22-2,1.768-3.229,1.214l-8.992-4.059
		C555.601,1799.095,555.058,1797.642,555.609,1796.422z"/>

		<linearGradient id="SVGID_23_" gradientUnits="userSpaceOnUse" x1="1524.9727" y1="-54306.3438" x2="1019.3336" y2="-54403.1016" gradientTransform="matrix(0.0283 0 0 -0.0283 294.4865 238.5296)">
		<stop  offset="0" style="stop-color:#035A85"/>
		<stop  offset="0.4588" style="stop-color:#056B9E"/>
		<stop  offset="1" style="stop-color:#087CB7"/>
	</linearGradient>
	<path fill="url(#SVGID_23_)" d="M337.257,1779.181L337.257,1779.181c0.041,1.343-1.02,2.472-2.362,2.513l-9.861,0.296
		c-1.34,0.041-2.472-1.017-2.511-2.356l0,0c-0.038-1.341,1.022-2.476,2.363-2.517l9.861-0.296
		C336.087,1776.779,337.219,1777.843,337.257,1779.181z"/>

		<linearGradient id="SVGID_24_" gradientUnits="userSpaceOnUse" x1="3101.2148" y1="-52795.7539" x2="3577.7202" y2="-53025.5586" gradientTransform="matrix(0.0283 0 0 -0.0283 294.4865 238.5296)">
		<stop  offset="0" style="stop-color:#870546"/>
		<stop  offset="1" style="stop-color:#AC015D"/>
	</linearGradient>
	<path fill="url(#SVGID_24_)" d="M395.095,1741.712L395.095,1741.712c-0.655,1.17-2.146,1.592-3.319,0.938l-8.611-4.821
		c-1.17-0.655-1.595-2.146-0.938-3.319l0,0c0.658-1.17,2.149-1.592,3.319-0.938l8.614,4.821
		C395.331,1739.051,395.755,1740.539,395.095,1741.712z"/>

		<linearGradient id="SVGID_25_" gradientUnits="userSpaceOnUse" x1="4892.5752" y1="-52668.9414" x2="5095.7852" y2="-52872.2422" gradientTransform="matrix(0.0283 0 0 -0.0283 294.4865 238.5296)">
		<stop  offset="0" style="stop-color:#426721"/>
		<stop  offset="1" style="stop-color:#5F8E30"/>
	</linearGradient>
	<path fill="url(#SVGID_25_)" d="M441.128,1739.316L441.128,1739.316c-0.94,0.965-2.486,0.983-3.448,0.047l-7.066-6.891
		c-0.962-0.935-0.981-2.486-0.043-3.445l0,0c0.935-0.965,2.48-0.983,3.448-0.046l7.063,6.887
		C442.044,1736.806,442.066,1738.354,441.128,1739.316z"/>

		<linearGradient id="SVGID_26_" gradientUnits="userSpaceOnUse" x1="7902.6465" y1="-52542.375" x2="7534.4829" y2="-52780.3398" gradientTransform="matrix(0.0283 0 0 -0.0283 294.4865 238.5296)">
		<stop  offset="0" style="stop-color:#035A85"/>
		<stop  offset="0.4588" style="stop-color:#056B9E"/>
		<stop  offset="1" style="stop-color:#087CB7"/>
	</linearGradient>
	<path fill="url(#SVGID_26_)" d="M509.882,1736.531L509.882,1736.531c-1.074-0.8-1.302-2.335-0.496-3.414l5.901-7.91
		c0.8-1.074,2.338-1.299,3.417-0.493l0,0c1.075,0.8,1.299,2.335,0.494,3.415l-5.898,7.909
		C512.497,1737.112,510.962,1737.34,509.882,1736.531z"/>

		<linearGradient id="SVGID_27_" gradientUnits="userSpaceOnUse" x1="9588.5723" y1="-52717.2383" x2="9964.8594" y2="-52569.7617" gradientTransform="matrix(0.0283 0 0 -0.0283 294.4865 238.5296)">
		<stop  offset="0" style="stop-color:#B34B0E"/>
		<stop  offset="1" style="stop-color:#D78400"/>
	</linearGradient>
	<path fill="url(#SVGID_27_)" d="M581.988,1729.773L581.988,1729.773c-0.036,1.343-1.151,2.414-2.5,2.381l-9.869-0.232
		c-1.34-0.033-2.412-1.151-2.379-2.5l0,0c0.033-1.337,1.151-2.411,2.497-2.379l9.867,0.233
		C580.944,1727.31,582.019,1728.428,581.988,1729.773z"/>

		<linearGradient id="SVGID_28_" gradientUnits="userSpaceOnUse" x1="11950.791" y1="-54492.0195" x2="12219.8672" y2="-54556.3008" gradientTransform="matrix(0.0283 0 0 -0.0283 294.4865 238.5296)">
		<stop  offset="0" style="stop-color:#426721"/>
		<stop  offset="1" style="stop-color:#5F8E30"/>
	</linearGradient>
	<path fill="url(#SVGID_28_)" d="M643.976,1785.635L643.976,1785.635c-0.293,1.308-1.605,2.141-2.914,1.842l-9.627-2.165
		c-1.309-0.294-2.141-1.606-1.842-2.916l0,0c0.293-1.311,1.608-2.141,2.916-1.84l9.628,2.166
		C643.44,1783.015,644.274,1784.327,643.976,1785.635z"/>
</g>
<rect x="1280.888" y="401.895" fill="none" width="1031.792" height="389.921"/>
</svg>
